<?xml version="1.0" standalone="no"?>
<!DOCTYPE svg PUBLIC "-//W3C//DTD SVG 20010904//EN"
 "http://www.w3.org/TR/2001/REC-SVG-20010904/DTD/svg10.dtd">
<svg version="1.0" xmlns="http://www.w3.org/2000/svg"
 width="100.000000pt" height="100.000000pt" viewBox="0 0 100.000000 100.000000"
 preserveAspectRatio="xMidYMid meet">

<g transform="translate(0.000000,100.000000) scale(0.100000,-0.100000)"
fill="#000000" stroke="none">
<path d="M146 993 c-39 -10 -94 -53 -117 -90 l-24 -38 0 -365 0 -365 24 -38
c13 -21 42 -50 65 -65 l41 -27 365 0 365 0 41 27 c23 15 52 44 65 65 l24 38 0
365 0 365 -24 38 c-13 21 -42 50 -65 65 l-41 27 -350 2 c-192 0 -359 -1 -369
-4z m468 -270 c152 -160 176 -189 176 -209 0 -30 -16 -46 -43 -46 -19 0 -47
22 -111 88 l-85 89 -1 -226 c0 -247 -2 -254 -57 -247 l-28 3 -3 233 c-1 127
-5 232 -9 232 -4 0 -45 -41 -92 -90 -47 -50 -92 -90 -98 -90 -18 0 -53 37 -53
54 0 24 270 306 292 306 11 0 57 -40 112 -97z"/>
</g>
</svg>
